HIERARCHY
ROOT Hips
{
	OFFSET -3.958830 18.904000 13.208200
	CHANNELS 6 Xposition Yposition Zposition Zrotation Yrotation Xrotation 
	JOINT LHipJoint
	{
		OFFSET 0.000000 0.000000 0.000000
		CHANNELS 3 Zrotation Yrotation Xrotation
		JOINT LeftUpLeg
		{
			OFFSET 1.800000 -1.400000 0.085000
			CHANNELS 3 Zrotation Yrotation Xrotation
			JOINT LeftLeg
			{
				OFFSET 2.215000 -6.000000 0.000000
				CHANNELS 3 Zrotation Yrotation Xrotation
				JOINT LeftFoot
				{
					OFFSET 2.500000 -6.900000 0.000000
					CHANNELS 3 Zrotation Yrotation Xrotation
					JOINT LeftToeBase
					{
						OFFSET 0.200000 -0.500000 1.950000
						CHANNELS 3 Zrotation Yrotation Xrotation
						End Site
						{
							OFFSET 0.000000 0.000000 0.000000
						}
					}
				}
			}
		}
	}
	JOINT RHipJoint
	{
		OFFSET 0.000000 0.000000 0.000000
		CHANNELS 3 Zrotation Yrotation Xrotation
		JOINT RightUpLeg
		{
			OFFSET -1.800000 -1.400000 0.085000
			CHANNELS 3 Zrotation Yrotation Xrotation
			JOINT RightLeg
			{
				OFFSET -2.215000 -6.000000 0.000000
				CHANNELS 3 Zrotation Yrotation Xrotation
				JOINT RightFoot
				{
					OFFSET -2.500000 -6.900000 0.000000
					CHANNELS 3 Zrotation Yrotation Xrotation
					JOINT RightToeBase
					{
						OFFSET -0.200000 -0.500000 1.950000
						CHANNELS 3 Zrotation Yrotation Xrotation
						End Site
						{
							OFFSET 0.000000 0.000000 0.000000
						}
					}
				}
			}
		}
	}
	JOINT LowerBack
	{
		OFFSET 0.000000 0.000000 0.000000
		CHANNELS 3 Zrotation Yrotation Xrotation
		JOINT Spine
		{
			OFFSET -0.087000 1.940000 -0.288900
			CHANNELS 3 Zrotation Yrotation Xrotation
			JOINT Spine1
			{
				OFFSET 0.000000 1.950000 0.060000
				CHANNELS 3 Zrotation Yrotation Xrotation
				JOINT Neck
				{
					OFFSET 0.000000 0.000000 0.000000
					CHANNELS 3 Zrotation Yrotation Xrotation
					JOINT Neck1
					{
						OFFSET 0.000000 1.600000 0.340000
						CHANNELS 3 Zrotation Yrotation Xrotation
						JOINT Head
						{
							OFFSET 0.000000 1.667000 -0.240000
							CHANNELS 3 Zrotation Yrotation Xrotation
							End Site
							{
								OFFSET 0.000000 0.000000 0.000000
							}
						}
					}
				}
				JOINT LeftShoulder
				{
					OFFSET 0.000000 0.000000 0.000000
					CHANNELS 3 Zrotation Yrotation Xrotation
					JOINT LeftArm
					{
						OFFSET 2.700000 1.550000 -0.730000
						CHANNELS 3 Zrotation Yrotation Xrotation
						JOINT LeftForeArm
						{
							OFFSET 5.450000 0.000000 0.000000
							CHANNELS 3 Zrotation Yrotation Xrotation
							JOINT LeftHand
							{
								OFFSET 3.450000 0.000000 0.000000
								CHANNELS 3 Zrotation Yrotation Xrotation
								JOINT LeftHandIndex1
								{
									OFFSET 0.750000 0.000000 0.000000
									CHANNELS 3 Zrotation Yrotation Xrotation
									End Site
									{
										OFFSET 0.000000 0.000000 0.000000
									}
								}
							}
						}
					}
				}
				JOINT RightShoulder
				{
					OFFSET 0.000000 0.000000 0.000000
					CHANNELS 3 Zrotation Yrotation Xrotation
					JOINT RightArm
					{
						OFFSET -2.700000 1.550000 -0.730000
						CHANNELS 3 Zrotation Yrotation Xrotation
						JOINT RightForeArm
						{
							OFFSET -5.450000 0.000000 0.000000
							CHANNELS 3 Zrotation Yrotation Xrotation
							JOINT RightHand
							{
								OFFSET -3.450000 0.000000 0.000000
								CHANNELS 3 Zrotation Yrotation Xrotation
								JOINT RightHandIndex1
								{
									OFFSET -0.750000 0.000000 0.000000
									CHANNELS 3 Zrotation Yrotation Xrotation
									End Site
									{
										OFFSET 0.000000 0.000000 0.000000
									}
								}
							}
						}
					}
				}
			}
		}
	}
}
MOTION
Frames: 14
Frame Time: 0.016667
0.552780 17.483240 -3.523230 -150.423104 52.002808 177.351689 -15.501320 13.501594 2.937114 15.264287 -1.315659 12.734303 -7.353048 7.274510 6.167369 0.488720 5.878351 2.537474 0.338130 -0.015430 0.503110 17.998142 -8.295245 4.833417 8.890351 7.446655 -38.588184 29.021803 -41.366933 71.323788 -3.569143 -15.434540 -0.312411 -0.210340 -0.428010 -0.003520 -2.596276 -5.196416 -9.110840 8.760371 -14.946842 47.784570 3.176204 -12.051151 4.075291 -0.308079 7.327204 -20.405693 9.026500 -24.140406 51.967556 19.436500 -24.994730 -20.661460 -15.422871 -34.625759 12.379444 -16.361109 1.489795 -15.627913 -111.402167 -83.119834 96.715404 -2.915145 1.257712 0.783560 -0.510670 0.341370 -0.070670 13.584035 27.574734 11.682423 14.946093 -4.164658 -20.174278 -4.367207 82.379364 -9.499775 2.069711 -1.446903 0.005570 -0.048700 -0.162680 -0.230140 
0.544460 17.439300 -3.555390 -145.069878 59.160951 -174.761123 -15.464496 13.138070 2.891122 14.723599 -1.432181 12.053190 -8.374847 7.086765 5.148939 0.527048 5.749152 2.601494 0.324820 -0.087630 0.534710 18.048379 -8.261725 5.148034 8.505736 9.348383 -43.793548 27.872098 -43.516855 76.692086 -3.837506 -16.572484 -0.541729 -0.281600 -0.462060 0.032840 -3.071424 -4.572454 -9.242016 10.582864 -16.168895 47.603765 1.882620 -11.930984 0.740843 -0.925876 6.617495 -20.857939 6.698332 -22.122971 51.774040 15.956250 -24.468070 -16.214650 -15.759285 -34.282643 12.893781 -16.036919 2.919752 -14.547842 -136.241517 -81.795928 122.784012 -2.596377 2.805558 0.776310 -0.503570 0.337590 -0.064630 14.246143 27.139010 12.428757 19.039899 -4.734921 -19.458456 2.114541 89.997543 -6.295634 2.113568 -1.572460 0.031740 -0.139670 -0.194100 -0.247820 
0.546970 17.391130 -3.662890 -124.010073 68.186640 -150.599022 -15.344483 12.652332 2.847379 16.133996 -1.717169 11.352510 -10.376523 7.029973 2.869573 0.615605 5.906423 2.583457 0.269930 -0.149500 0.455310 18.264354 -7.817701 5.533109 8.669150 14.412865 -48.927821 28.042159 -46.713607 82.029437 -4.149630 -17.962783 -0.787062 -0.320550 -0.388810 0.067320 -3.361353 -4.246218 -9.540211 16.499942 -18.244264 45.445043 -1.910739 -10.730279 -1.069490 0.250749 4.887203 -19.418144 2.188570 -19.444051 50.156586 12.079860 -23.881870 -12.690170 -18.382162 -32.224388 11.988492 -15.080863 1.767815 -12.489464 -142.207820 -81.274295 130.006421 -2.724108 3.003840 0.688420 -0.439600 0.269910 -0.048220 14.569390 26.924461 12.522463 15.392334 -2.401616 -15.175621 -146.149720 89.968077 -156.115074 2.259748 -1.881148 0.051270 -0.165470 -0.157600 -0.204710 
0.594370 17.385460 -3.797270 -82.609398 71.437536 -107.688573 -15.213539 12.526476 2.959564 16.800467 -1.642404 13.167946 -10.787694 6.780968 -0.675124 0.757996 6.169499 2.577391 0.270270 -0.121300 0.390550 18.492571 -7.282426 5.520971 9.294654 17.066833 -48.821896 28.866723 -48.324517 83.370750 -4.288218 -18.434644 -0.787588 -0.298080 -0.296240 0.023050 -3.505714 -3.857174 -9.746040 20.945522 -20.627619 45.114679 -5.142432 -11.321436 -1.164039 1.288690 1.805716 -18.132053 -3.953338 -14.751501 49.756214 12.030480 -22.001760 -12.527500 -20.762471 -30.606213 11.477185 -12.806362 3.769527 -11.868166 -149.643051 -80.479851 137.965674 -2.757506 3.182581 0.645380 -0.406960 0.219830 0.029730 15.238676 27.784251 11.986655 10.914594 3.402458 -11.569021 55.141277 88.580696 42.520344 2.465604 -1.710593 0.021810 -0.094160 -0.185680 -0.156490 
0.690150 17.354360 -3.856660 -45.905689 65.702663 -68.725437 -15.447727 12.324881 2.942445 17.196744 -1.594841 14.112084 -11.713003 6.672919 -2.490363 0.873630 6.349717 2.544606 0.300900 -0.040760 0.339960 18.341084 -6.906748 5.491598 8.562760 18.869626 -49.645733 30.016296 -50.943937 85.266428 -4.474478 -19.068279 -0.857229 -0.262660 -0.231460 0.041830 -4.021679 -3.297564 -9.938943 22.440151 -20.367191 43.549045 -7.090579 -11.588145 -0.072653 2.104620 0.005880 -16.246656 -7.173688 -11.142648 48.359408 12.034900 -19.316720 -12.441900 -21.094816 -27.636471 10.611368 -12.823478 4.112762 -11.609413 -158.747212 -81.906348 149.054024 -2.810103 3.357665 0.578540 -0.366490 0.205400 0.093410 14.983655 25.598728 10.826428 11.268855 6.254451 -8.633610 89.431264 87.688147 71.039087 4.086195 2.978425 0.054310 -0.081520 -0.210390 -0.097710 
0.772960 17.345110 -3.914370 -30.343120 55.542940 -51.558511 -15.517645 11.918845 2.803699 17.723623 -1.378059 15.029656 -11.552908 6.597778 -3.376099 0.940668 6.381477 2.558153 0.275420 -0.045700 0.320720 18.320131 -6.928899 5.582291 3.922833 19.340032 -52.469823 41.827994 -56.208531 77.644705 -4.379233 -18.442403 -0.696966 -0.268570 -0.204590 0.015800 -4.355792 -2.834495 -10.030106 25.864076 -20.282015 42.856146 -9.907819 -10.002075 0.237447 2.445372 -1.644993 -15.863972 -9.684686 -9.324333 46.550783 10.465770 -17.512230 -11.407290 -21.176923 -27.183256 10.500805 -13.615939 3.475375 -11.285746 -155.669316 -80.590269 144.583920 -2.872043 3.284728 0.523670 -0.345500 0.174140 0.096570 14.561091 27.194770 10.602028 14.713345 -3.583877 -17.588946 133.256387 75.339884 113.064439 2.353249 -0.423222 0.053080 -0.066700 -0.213360 -0.079360 
0.875100 17.350190 -4.007230 -24.086428 43.745125 -42.836995 -15.348627 11.630621 2.802301 19.014472 -1.429075 14.715815 -12.291361 6.615904 -3.871033 0.927138 6.505229 2.531613 0.271100 -0.036340 0.263190 18.500208 -7.139455 5.544494 0.557566 16.935700 -52.104149 55.668824 -58.701642 65.481252 -4.003471 -16.710855 -0.338174 -0.240800 -0.122080 0.024140 -4.458543 -2.816364 -9.855640 29.555592 -22.351507 42.362168 -12.396104 -10.397201 0.791959 3.291400 -4.500547 -15.302359 -14.589117 -5.668969 43.837325 9.948640 -14.991000 -12.356830 -22.678177 -26.668492 9.748155 -12.168074 2.420720 -11.248005 -160.219405 -80.453090 149.545563 -2.944500 3.374772 0.496140 -0.306730 0.126530 0.117690 14.748357 28.585541 10.362925 13.388775 -2.657877 -17.958509 127.516530 75.236589 105.859074 2.425364 -0.067256 0.034950 -0.021400 -0.172510 -0.054910 
1.004760 17.347660 -4.036950 -19.790422 29.378254 -34.642946 -15.172212 11.488109 2.885610 20.434429 -1.661032 13.666290 -12.990088 6.607524 -4.133241 0.907468 6.533263 2.523705 0.367040 0.088320 0.288000 18.673949 -7.289653 5.517680 0.160114 16.045580 -52.876256 69.097160 -59.273995 53.968818 -3.733095 -15.235723 0.000187 -0.156160 -0.121770 0.012150 -4.407301 -2.919464 -9.634892 31.840081 -23.061653 40.717563 -13.754690 -9.953038 1.420702 4.314651 -7.029751 -15.554809 -19.290348 -0.232979 42.093427 7.766690 -9.917360 -12.439350 -24.173138 -26.127061 9.752592 -13.099053 0.978221 -11.183860 -177.345414 -82.530965 168.634146 -2.903979 3.589310 0.502090 -0.316660 0.138710 0.181210 14.839681 29.935231 10.127383 14.211396 -0.347540 -18.162159 121.079644 75.866273 98.392563 2.595739 0.519695 0.031780 0.002520 -0.225460 -0.047970 
1.150770 17.346990 -4.031600 -17.329773 18.015161 -29.767542 -15.074866 11.390005 3.011550 20.989333 -1.667734 14.247484 -13.775172 6.573956 -4.978024 0.854027 6.718347 2.448719 0.409300 0.129910 0.334070 18.757871 -7.434549 5.410581 -1.335506 14.187697 -51.215935 76.000886 -60.004247 48.548297 -3.577362 -14.496161 0.156297 -0.096760 -0.118260 0.009920 -4.435885 -2.785583 -9.435463 33.238592 -23.356369 39.017751 -15.156031 -10.400209 3.546191 5.067186 -8.145169 -15.692917 -21.403841 3.556396 40.759386 4.601990 -5.385210 -13.869680 -25.162231 -26.429407 9.692446 -13.111234 0.043199 -11.413633 -175.986959 -81.030328 165.989665 -2.946603 3.552902 0.538360 -0.303880 0.138580 0.171150 14.500937 30.619702 10.351199 16.270412 0.422407 -19.468599 130.755059 76.789271 111.334315 2.227031 -0.134749 -0.007430 0.051410 -0.207030 -0.089540 
1.238090 17.332490 -3.978650 -14.668211 7.506924 -26.697812 -15.057152 11.578526 3.197893 20.915442 -1.426208 15.610723 -14.302069 6.622076 -5.293773 0.837470 6.901852 2.357018 0.440940 0.151690 0.380530 18.726952 -7.705523 5.136933 -2.919412 10.146548 -48.747079 90.731563 -57.552621 36.106352 -3.293147 -13.131722 0.433635 -0.066510 -0.150240 0.025790 -4.367407 -2.904440 -9.266280 31.121704 -22.362509 39.746320 -14.698080 -10.216285 4.914728 5.167262 -8.332629 -16.790734 -23.135207 5.856185 41.641282 2.869880 -3.157500 -14.717130 -24.807736 -28.579926 8.764943 -10.996981 -1.816714 -12.203518 -142.515277 -80.388861 129.875664 -2.985664 3.078514 0.588890 -0.320930 0.168050 0.145620 14.154473 32.644412 11.952907 17.631577 -1.309540 -20.374982 138.944013 76.477380 119.125402 2.091057 -0.610050 -0.020170 0.061020 -0.187140 -0.124760 
1.371000 17.326880 -3.892490 -14.019030 -4.160070 -23.270278 -15.067431 11.579644 3.331824 21.565138 -1.494514 16.529206 -15.122780 6.674270 -5.691787 0.763877 7.129888 2.255359 0.539330 0.289730 0.521240 18.692844 -7.770391 5.011549 -4.674568 8.734901 -46.385882 90.911699 -58.478906 36.179551 -3.289639 -13.004308 0.432107 0.062020 -0.192730 0.015400 -4.371282 -2.876227 -9.099724 30.532105 -21.611299 36.777598 -15.120052 -10.916962 12.879293 6.427379 -7.753641 -17.719579 -21.804429 7.727810 40.400391 -2.279520 1.071160 -17.763790 -21.337326 -32.363120 9.944449 -13.466822 -3.694027 -16.203933 -140.207965 -84.562887 129.873612 -3.007352 2.802456 0.612490 -0.301070 0.217610 0.124420 8.211228 35.371233 12.618916 23.367486 1.388058 -24.838105 154.367598 83.073923 139.820912 1.754814 -1.017588 -0.052910 0.144860 -0.213490 -0.183170 
1.484470 17.303810 -3.766000 -15.294580 -16.322536 -18.213835 -15.108687 11.500734 3.369305 22.712494 -1.743592 16.008222 -15.244463 6.661288 -5.699199 0.773115 7.118509 2.202164 0.678920 0.489930 0.578780 18.643305 -7.747219 5.016282 -5.701218 8.828043 -46.076718 89.121887 -62.143268 39.187832 -3.393688 -13.232676 0.352971 0.160110 -0.266470 0.076230 -4.467530 -2.746383 -8.936682 33.267071 -22.022199 33.787345 -16.124762 -11.676567 15.238324 7.252381 -8.738347 -17.792683 -23.285605 10.394552 37.333793 -4.392020 3.600330 -19.919650 -19.546966 -31.985966 12.237354 -15.992023 -5.077690 -15.813613 163.950091 -85.126677 -179.611004 -2.594181 3.909504 0.578630 -0.310200 0.288180 0.165540 5.270470 34.569007 11.089826 24.573062 4.896316 -25.070588 150.087622 82.495543 134.224968 1.758441 -0.901445 0.041150 0.082990 -0.284500 -0.160670 
1.504360 17.272620 -3.648900 -15.587176 -29.482732 -13.054837 -15.179224 11.472489 3.271038 22.196951 -1.423035 15.846814 -15.362775 6.769001 -4.828595 0.780088 6.991709 2.224534 0.759740 0.594400 0.630060 18.565728 -7.771153 5.198599 -7.177754 9.805052 -46.742987 88.701138 -63.421363 40.650043 -3.444850 -13.360755 0.305155 0.209240 -0.302930 0.103970 -4.693729 -2.403912 -8.829451 32.986027 -20.463379 31.663258 -16.457339 -11.001852 18.485734 7.257691 -8.482833 -19.042040 -22.495520 11.668034 35.769668 -4.472700 5.359360 -19.695210 -16.256934 -32.090757 14.259172 -18.371862 -6.800266 -13.542185 122.102361 -78.965422 -142.106763 -2.423957 4.171138 0.542890 -0.310390 0.315590 0.190180 2.372770 34.293079 11.746537 28.095462 8.520969 -22.459385 -163.513008 81.401104 -179.186995 1.732992 -2.028767 0.093550 0.031140 -0.343690 -0.149770 
1.507310 17.234050 -3.499860 -18.556245 -41.190457 -6.391028 -15.287554 11.285766 3.202832 22.743336 -1.647671 15.359351 -15.642698 6.846672 -4.539796 0.754606 6.955200 2.251444 0.765980 0.645060 0.602580 18.464606 -7.774806 5.285466 -8.507500 10.025465 -46.618109 83.652416 -64.197815 44.621923 -3.461101 -13.612714 0.257547 0.274190 -0.266490 -0.003100 -5.036471 -2.076411 -8.737189 33.924307 -20.720679 28.605327 -16.381782 -11.825201 20.333184 6.163035 -8.888355 -19.697936 -22.922463 11.624959 34.155214 -0.642320 3.944480 -19.343650 -13.603939 -32.597675 15.778303 -20.843519 -6.743090 -12.452254 113.817867 -71.375223 -124.924209 -3.288139 2.719576 0.507150 -0.324870 0.264180 0.204650 1.981973 34.925011 11.308983 27.234758 11.835369 -21.395833 -157.560304 82.171462 -173.293874 1.749319 -2.090267 0.044080 0.113810 -0.363710 -0.129270 
